/* XPM */
static char *ae72f961e3144e7f84c6100768ca7b1caUADkU5qnk4aaR8R[] = {
/* columns rows colors chars-per-pixel */
"32 32 73 1 ",
"  c None",
". c black",
"X c #220404",
"o c #4E1007",
"O c #482F2F",
"+ c #642D26",
"@ c #6A3822",
"# c #5E4848",
"$ c #784942",
"% c #794A43",
"& c #7E514B",
"* c #646464",
"= c #802D0D",
"- c #87391B",
"; c #8F472B",
": c #885F37",
"> c #975339",
", c #A97538",
"< c #D04C12",
"1 c #D5622F",
"2 c #9C5B43",
"3 c #9E6047",
"4 c #A2664F",
"5 c #8F6963",
"6 c #867676",
"7 c #9E7C77",
"8 c #DB764A",
"9 c #DB774B",
"0 c #DD7F55",
"q c #F38400",
"w c #F49627",
"e c #F59F39",
"r c #F8AE20",
"t c #F5A13E",
"y c #B58572",
"u c #B78876",
"i c #F7B15F",
"p c #E1906C",
"a c #E2906D",
"s c #E29471",
"d c #E49877",
"f c #F8B86C",
"g c #F8BA72",
"h c #EFD546",
"j c #F9C156",
"k c #F0D959",
"l c #909090",
"z c #A4A4A4",
"x c #BBBBBB",
"c c #C29A8B",
"v c #C59F90",
"b c #CEBDBA",
"n c #D7BDB3",
"m c #EEBFAB",
"M c #F9C281",
"N c #F9C78B",
"B c #F9C991",
"V c #FACB95",
"C c #FACE9A",
"Z c #FBDB9D",
"A c #FAD4A6",
"S c #FBD6AC",
"D c #F2CEBE",
"F c #F8ECAE",
"G c #FCE4B6",
"H c #C6C6C6",
"J c gray79",
"K c #F5DCD1",
"L c #FDE8C1",
"P c #FCE7CE",
"I c #FAF3CC",
"U c #FDEFD4",
"Y c white",
/* pixels */
"                                ",
"                                ",
"             ....               ",
"           ..,,,:..             ",
"          .l*:,:@*l.            ",
"          .*JJzzzl*.            ",
"           .*@::@*.             ",
"           .l    *.             ",
"           .z    *.             ",
"           .z    l.             ",
"           .J x  l.             ",
"           .J H  l.             ",
"          .Jtsp<<8l.            ",
"          .JjC8<<ql.            ",
"         .YjIFkhrq3l.           ",
"        .YfZUi<<===3l.          ",
"        .YgLPwq<<===l.          ",
"       .YALPG<<<=<==3l.         ",
"       .YNPUBt<=<==o=l.     .   ",
"      .YuSPDMp1<=<o=o%l.   ...  ",
"      .Y4PmVp><==ooo+ol. ...    ",
"      .Y=Kdp2===o=oo&=l.        ",
"      .Yon0==o=ooooo5=*.        ",
"      .J=v-=o=ooooo$c;*.        ",
"      .Joy+ooXXoXXOb74*.        ",
"       .lX&XXXXXX#674*.         ",
"        .*XXXXXXXoo=*.          ",
"         .**********.           ",
"          ..........            ",
"                                ",
"                                ",
"                                "
};
