/* XPM */
static char *result[] = {
/* columns rows colors chars-per-pixel */
"32 32 192 2 ",
"   c black",
".  c gray1",
"X  c #060402",
"o  c #0B0701",
"O  c #0A0502",
"+  c #0A0602",
"@  c #0C0600",
"#  c #0F0703",
"$  c #0F0B01",
"%  c #0F0802",
"&  c #100B01",
"*  c #130803",
"=  c #160E02",
"-  c #160A05",
";  c #110E06",
":  c #190903",
">  c #1B0C06",
",  c #151004",
"<  c #1B1302",
"1  c #1D1103",
"2  c #131313",
"3  c #260E04",
"4  c #231304",
"5  c #2B1701",
"6  c #201807",
"7  c #2A1D04",
"8  c #2B2109",
"9  c #37231D",
"0  c #2B2723",
"q  c #2C2B2A",
"w  c #3B3A27",
"e  c #35372D",
"r  c #382933",
"t  c #363C3E",
"y  c #770909",
"u  c #770A0A",
"i  c #780A09",
"p  c #7D0F09",
"a  c #7F120A",
"s  c #432508",
"d  c #43330E",
"f  c #543513",
"g  c #4C2928",
"h  c #443421",
"j  c #40362E",
"k  c #523625",
"l  c #5C3C39",
"z  c #613726",
"x  c #764301",
"c  c #624E11",
"v  c #72600E",
"b  c #53472D",
"n  c #524B39",
"m  c #694A20",
"M  c #795122",
"N  c #625E3B",
"B  c #7D5931",
"V  c #796132",
"C  c #75723C",
"Z  c #4F3F46",
"A  c #6D3F40",
"S  c #3E4841",
"D  c #544C46",
"F  c #585348",
"G  c #585756",
"H  c #545B54",
"J  c #6A5C43",
"K  c #755E5C",
"L  c #5C6A4B",
"P  c #7E7558",
"I  c #646464",
"U  c #656565",
"Y  c #737B6E",
"T  c #94370F",
"R  c #824C1C",
"E  c #8E541B",
"W  c #B24212",
"Q  c #B34511",
"!  c #A35A13",
"~  c #B1501D",
"^  c #85631C",
"/  c #9A7510",
"(  c #A56611",
")  c #B76616",
"_  c #B06F11",
"`  c #895F2B",
"'  c #965D2F",
"]  c #A24A25",
"[  c #A25F27",
"{  c #B35229",
"}  c #987333",
"|  c #A26524",
" . c #A0692C",
".. c #BA6624",
"X. c #B5682A",
"o. c #AD762F",
"O. c #B37B2C",
"+. c #A86E3F",
"@. c #AA7C31",
"#. c #C54C13",
"$. c #D04E16",
"%. c #C05B16",
"&. c #DE5317",
"*. c #D35C1D",
"=. c #D37915",
"-. c #E3610F",
";. c #E77D15",
":. c #C05720",
">. c #E35F23",
",. c #DD6336",
"<. c #E9772B",
"1. c #91794E",
"2. c #836552",
"3. c #9C6B56",
"4. c #9B7256",
"5. c #A0664D",
"6. c #A77945",
"7. c #A67C5F",
"8. c #867D74",
"9. c #8C7B71",
"0. c #877279",
"q. c #AB7664",
"w. c #BCAB2D",
"e. c #DF9A13",
"r. c #FC8407",
"t. c #FA891E",
"y. c #F2991B",
"u. c #FA9E1C",
"i. c #F6AA15",
"p. c #C98824",
"a. c #F68A2D",
"s. c #EE962C",
"d. c #EAA025",
"f. c #EAA333",
"g. c #FEA531",
"h. c #FAAE36",
"j. c #FDA53C",
"k. c #FCBF34",
"l. c #9E8B51",
"z. c #969757",
"x. c #B4945C",
"c. c #998060",
"v. c #BF8C6D",
"b. c #AF8B75",
"n. c #BBB172",
"m. c #D19244",
"M. c #C98E50",
"N. c #C29A55",
"B. c #FF9346",
"V. c #FE9A46",
"C. c #F19A54",
"Z. c #C7A64D",
"A. c #DDAB59",
"S. c #E3A543",
"D. c #F8A249",
"F. c #FFBD47",
"G. c #F2A850",
"H. c #FFB455",
"J. c #FFBF59",
"K. c #DF8364",
"L. c #DA9C7A",
"P. c #F49960",
"I. c #C5AB71",
"U. c #FFB16F",
"Y. c #FCB868",
"T. c #EEAF7E",
"R. c #FDAA7B",
"E. c #FCDC4A",
"W. c #FAD657",
"Q. c #FDC465",
"!. c #FBCA66",
"~. c #F6D66D",
"^. c #E0C77B",
"/. c #AC9588",
"(. c gray70",
"). c #B4B4B4",
"_. c #E1BE85",
"`. c #FFD085",
"'. c #E5CDB3",
"]. c #FCE6A5",
"[. c #F6DEC4",
"{. c #FBE1C4",
"}. c #FBEDC1",
"|. c #FAE2CB",
" X c #FBEFCE",
".X c #FDEED8",
"XX c #FCF5DD",
"oX c #FCF4E6",
"OX c #FDF9F5",
"+X c #FEFEFE",
"@X c white",
"#X c None",
/* pixels */
"#X#X#X#X#X#X#X#X#X#X#X#X    x .   #X#X#X#X#X#X#X#X#X#X#X#X#X#X#X",
"#X#X#X#X#X#X#X#X#X#X#X#X    x     #X#X#X#X#X#X#X#X#X#X#X#X#X#X#X",
"#X#X#X#X#X#X#X#X#X#X#X#X  . x     #X#X#X#X#X#X#X#X#X#X#X#X#X#X#X",
"#X#X#X#X#X#X#X#X#X#X#X#X    .     #X#X#X#X#X#X#X#X#X#X#X#X#X#X#X",
"#X#X#X#X#X#X#X#X#X#X#X#X    x .   #X#X#X#X#X#X#X#X#X#X#X#X#X#X#X",
"#X#X#X#X#X#X#X#X#X#X#X#X    x .   #X#X#X#X#X#X#X#X#X#X#X#X#X#X#X",
"#X#X#X#X#X#X#X#X#X#X{ {     .     #X#Xt.k.i.&.#X#.#X#X#X#X#X#X#X",
"#X#X#X#X#X#X#X#X#X- T &.    . . . #X#X4 e.i.&.#X#.#.#X#X#X#X#X#X",
"#X#X#X#X#X#X#XW 1 . . . . . . . . . . 8 4 Q #X#X&.t.#X#X#X#X#X#X",
"#X#X#X#X#X#X] o , . i u u . y . . a . 7 % > #X#X#X&.#.#X#X#X#X#X",
"#X#X#X#X#X#X: = ; . . 2 p U (.. . s d . # O   #X#Xt.#.#X#X#X#X#X",
"#X#X#X#X#X#X$.y.6 f.&.#X7 U @X).. k.i.. &.#X#X#X&.k.#.#X#X#X#X#X",
"#X#X#X#X#X#X&.k.u.u.*.#X$ U @X(.< k.i.t.<.~ #X#X:.&.#X#X#X#X#X#X",
"#X#X#X#X#X#X-.k.u.k.*.*.. U ).(.X k.i.i.t.#.#X#X:.:.#X#X#X#X#X#X",
"#X#X#X#X#X#X-.u.u.k.d.*.& . @X).. k.J.t.t.&.#X:.#X#X#X#X#X#X#X#X",
"#X#X#X#X#X#X-.u.k.E.d.*.. U @X(.3 W.!.i.t.&.#X#X#X#X#X#X#X#X#X#X",
"#X#X#X#X#X&.&.-.u.h.k.u.@ U ).(.5 t.J.i.t.5.#X&.&.#X#X#X#X#X#X#X",
"#X#X#X#X .r.k.&.-.s.h.Q.. U ).).. r.&.J.B.<.&.k.r.&.#X#X#X#X#X#X",
"#X#X#X#Xo.r.k.r.&.u.S.Q.* U U ).0 F.a.H.j.&.r.k.r.&.#X#X#X#X#X#X",
"#X#X#X#X! r.k.r.&.D.D.P.+ U (.(.q }.Q.Y.D.&.r.k.r.;.X.#X#X#X#X#X",
"#X#X#X#X#Xr.|.F.r.&.C.T.  U (.(.G F Q.U.V.r.F.|.r.=.[ #X#X#X#X#X",
"#X#X#X#X3.&.k.~.Q.r.&.Q.[.I +X(.. oX.XR.r.Q.~.r.&.:.%.#X#X#X#X#X",
"#X#X#X#X3.r.g.Q.~.Q.r.R.[.U U OX X XXXT.r.~.Q.g.r.>... .#X#X#X#X",
"#X#X4.7.q.&.r.g.Q.~.~.].|..X.XoXoX X Xg.r.Q.g.r.&.) X.#X#X#X#X#X",
"#X#X#X+.+.q.,.C.m.Q.Q.Q.].'.{.|.}.}.{.Y.Z.m.C.,.&...| #X#X#X#X#X",
"#X#X#XM ` h c 1.N.6.0.J b.v./.L.`.R.I.G.^.N.z.g 9 j _ / #X#X#X#X",
"#X#X#XM M w J N S e N A.D M._.8.K.z.N.Z 2.9.w.t J v #X#X#X#X#X#X",
"#X#X#X#XB D w O.m S L n Z l.n.K H 8.I.j l r D p.` ( #X#X#X#X#X#X",
"#X#X#X#X#XM l f m ` X.w D 1.c.Y t D P C e ^ O.M R v #X#X#X#X#X#X",
"#X#X#X#X#Xm l z f h h V r x.C j C @.b j ' A R m z f #X#X#X#X#X#X",
"#X#X#X#X#X#X#X#X#X#XR R b P E E k h M #X#X#X#X#X#X#X#X#X#X#X#X#X",
"#X#X#X#X#X#X#X#X#X#X#X#X} #X#X#X#X#X#X#X#X#X#X#X#X#X#X#X#X#X#X#X"
};
