/* XPM */
static char *ceeb0915e7024ecf807c84c316608b0bDiJzoA3Ie4zaugM9[] = {
/* columns rows colors chars-per-pixel */
"32 32 12 1 ",
"  c None",
". c black",
"X c #7F0000",
"o c #AF0000",
"O c #FFD800",
"+ c #4C5799",
"@ c #6675CC",
"# c #7F92FF",
"$ c #AFBEFF",
"% c gray80",
"& c #FFE5E5",
"* c white",
/* pixels */
"          ...#$$$$#...          ",
"         .#$$$$$$$$$$#.         ",
"        .#$$########$$#.        ",
"        .$##@++++++@##$.        ",
"       .$#@++$$$$$$++@#$.       ",
"       .#@+#$$.$$.$$#+@#.       ",
"       .#+@#.$.$$.$.#@+#.       ",
"       .+@#$.$.$$.$.$#@+.       ",
"       .+@#$.$.$$.$.$#@+.       ",
"       .@+@#$$$$$$$$#@+@.       ",
"       .#.++++++++++++.#.       ",
"       .#.&&&&&&&&&&&&.#.       ",
"       .@.&&&&&&&&&&&&.@.       ",
"        .+.&&&&&&&&&&.+.        ",
"     ....+@.&&&&&&&&.@+....     ",
"    .+$$#@+@........@+@#$$+.    ",
"    .@###@+@###@@###@+@###@.    ",
"   .**@##+@#$$####$$#@+##@*.    ",
"   .%**+@+@#$$$$$$$$#@+@+%%.    ",
"   .@++*.+@##$$##$$##@+.%%%+.   ",
"   .###+*.+@########@+. .++@.   ",
"   .$###. .+@@#@@#@@+.  .@##.   ",
"   .$$#@. .XXooOOooXX.  .##.    ",
"    .$#.  .+%+@##@+%+@.  ..     ",
"     ..   .%%*+@@+***+.         ",
"          .%%%%..%***%.         ",
"          .+%%%. .%*++#.        ",
"          .++++. .++@##.        ",
"          .+++.  .@@@@@@.       ",
"          .+++.  .@+++++.       ",
"          .+++.  .+++++.        ",
"          .....  ......         "
};
