/* XPM */
static char *_350e2bbec194fcf9f6bcdae99187e92Qn56EzETMvd2wRD9[] = {
/* columns rows colors chars-per-pixel */
"32 32 10 1 ",
"  c None",
". c black",
"X c #7F0000",
"o c #AF0000",
"O c #4C5799",
"+ c #6675CC",
"@ c #7F92FF",
"# c #AFBEFF",
"$ c gray80",
"% c white",
/* pixels */
"          ...@####@...          ",
"         .@##########@.         ",
"        .@##@@@@@@@@##@.        ",
"        .#@@@@@@@@@@@@#.        ",
"       .#@@@@@@@@@@@@@@#.       ",
"       .@@@@@@@@@@@@@@@@.       ",
"       .@@@@@@@@@@@@@@@@.       ",
"       .O@@@@@@@@@@@@@@O.       ",
"       .O@@@@@@@@@@@@@@O.       ",
"       .+@@@@@@@@@@@@@@+.       ",
"       .++@@@@@@@@@@@@++.       ",
"       .+++@@@++++@@@+++.       ",
"       .O++++++++++++++O.       ",
"        .O++++++++++++O.        ",
"     ....OO..........OO....     ",
"    .O@@@+O++++++++++O+@@@O.    ",
"    .++@@+O+@@@@@@@@+O+@@++.    ",
"    .%+++O+@@@@@@@@@@+O+++$%.   ",
"    .%$O+O+@@@@@@@@@@+O+O$%%.   ",
"   .%%$$.O+@@@@@@@@@@+O.%$$%.   ",
"   .$$$O .+@@@@@@@@@@+.%O+++.   ",
"   .+++.  .++++++++++. .@@@@.   ",
"    .+@.  .XXXooooXXX. .+@@#.   ",
"     ..  .+O$O++++O$O.  .@@.    ",
"         .O$%%O++O%$$.   ..     ",
"         .$$$$$..$$$$.          ",
"        .OOOO$. .$$$O.          ",
"        .++++O. .OOOO.          ",
"        .+++++. .OOOO.          ",
"        .OOOO+. .OOOO.          ",
"        .OOOOO. .OOOO.          ",
"         .....  .....           "
};
