/* XPM */
static char *_bd2e784cb564204b316008a2cd9f6bbkdqap8VMnPcM2AjZ[] = {
/* columns rows colors chars-per-pixel */
"32 32 11 1 ",
"  c None",
". c black",
"X c #AF0000",
"o c #FFD800",
"O c #4C5799",
"+ c #6675CC",
"@ c #7F92FF",
"# c #AFBEFF",
"$ c gray80",
"% c #FFE5E5",
"& c white",
/* pixels */
"          ..OOO..               ",
"        ..@@@###@..             ",
"       .@@#######@+.            ",
"      .+@#####@@@+OOO           ",
"      .@#####@@+O@###O          ",
"      .@####@+OO@##.#O          ",
"     .+@###@+O@@#.#.#O          ",
"     .@###@@O+@##.#.#O          ",
"     .@#++@O+@@##.#.#O          ",
"     .@#+O@O++@@#####O          ",
"     .+@#@++OOOOOOOOO           ",
"      .@#@@+%%%%%%%%.           ",
"      .@@@@+%%%%%%%%.           ",
"      .++@@+%%%%%%%.            ",
"      .O..OO%%%%%%.             ",
"       .O##@+.....              ",
"       .+@@@+O@+.               ",
"       .$+@@O+@@+.              ",
"       .&$O@O@##@.              ",
"       .OO$.+@###.              ",
"       .@+OO.@@#@.              ",
"        .@@@+.+@+.              ",
"        .#@@@.XXo.              ",
"         .#@.$O@@.              ",
"        .O..&&&O+.              ",
"        .$$$.$&&$.              ",
"       .OO$$$.$&OO..            ",
"       .OOOOO.OO++@+.           ",
"      .OOOOO. .+++++.           ",
"      .OOOOO. .O++OO.           ",
"       .OOOO. .OOOO.            ",
"        ....   ....             "
};
