/* XPM */
static char *_246f42349ed4cf6ed57d9b38706bbe3AnjlvXKBw7pSZaKe[] = {
/* columns rows colors chars-per-pixel */
"32 32 12 1 ",
"  c None",
". c black",
"X c #7F0000",
"o c #AF0000",
"O c #FFD800",
"+ c #4C5799",
"@ c #6675CC",
"# c #7F92FF",
"$ c #AFBEFF",
"% c gray80",
"& c #FFE5E5",
"* c white",
/* pixels */
"              ..+++..           ",
"            ..#$$$###..         ",
"           .@#$$$$$$$##.        ",
"          +++@###$$$$$#@.       ",
"         +$$$#+@##$$$$$#.       ",
"         +$.$$#++@#$$$$#.       ",
"         +$.$.$##+@#$$$#@.      ",
"         +$.$.$$#@+##$$$#.      ",
"         +$.$.$$##@+#@@$#.      ",
"         +$$$$$##@@+#+@$#.      ",
"          +++++++++@@#$#@.      ",
"          .&&&&&&&&@##$#.       ",
"          .&&&&&&&&@####.       ",
"           .&&&&&&&@##@@.       ",
"            .&&&&&&++..+.       ",
"             .....@#$$+.        ",
"              .@#+@###@.        ",
"             .@##@+##@%*.       ",
"             .#$$#+#+%*+.       ",
"             .$$$#@.%*+@.       ",
"             .#$##@@.+@##.      ",
"             .@#@@++.@##$.      ",
"             .OooXXX.##$#       ",
"             .##+%*+#.@#.       ",
"             .@+%***++..        ",
"             .%%.%%**%.         ",
"           ..++%%.%*%++.        ",
"          .++++++.+++@@.        ",
"          .+++++. .#@@@@        ",
"          .+++++. .@@@++.       ",
"           .++++. .++++.        ",
"            ....   ....         "
};
