/* XPM */
static char *result[] = {
/* columns rows colors chars-per-pixel */
"33 32 13 1 ",
"  c #101010",
". c #202020",
"X c gray19",
"o c gray25",
"O c #505050",
"+ c gray44",
"@ c #808080",
"# c #909090",
"$ c #A0A0A0",
"% c gray69",
"& c #C0C0C0",
"* c #D0D0D0",
"= c gray88",
/* pixels */
".X.XX.XX. X. X.XX.XX.. X..XX X ..",
" ***==&**&&**&==&**&****&*&%&**+ ",
" &%%%%$%%%%$%%%#%$%#$%$%%$#$#$%o ",
" *$%$#%$#$##%$#$#%$#$$##$%$%%%%O ",
".=%$XXXX%#XXoXXX+#XXXXXXo++oX$#O.",
"X*$$X  & &# oo $$Oo&%# X+##+o$#oX",
" =$%O+O**%%O+#X$#oo**&% $$ #X%%O ",
".*%#+#O**%#O##+X++X&**  +$+o $$o.",
"X=##OOX## O++OOX%X+ %%# O+ooX$$OX",
".=$%X XXX #%# XX* o  oo     X#%o.",
"X*#$X XOO#%*X# O * #%   &*%# $%OX",
" *%$XOOXO#**%%OX+ *  XX ***% $#o ",
" *%$+#+o #%%%%OOX #%XO+X** % $%O ",
" &%%+# OoX#%#O+X%XX%OOo@ %## %%O ",
".&#$O+o XXX XXXXX##+Xo X@    $%o.",
"X=#$X  XOOXOO #O+%%# XXX +ooX#%OX",
"X*%$X #%%#O# o O+ ##O%#  ##+O$%oX",
".=%#XO% *%O#++# OOO#O*%# $$#O#%O.",
"X=$%XO***%o+OO+%    %*%% ## o%%OX",
".*$%X O%%#X oo * %+X % #X OOX$%o.",
"X*%#XO+O X  %  #%  oX #XOX   $%OX",
" =%#O$##O % %*o%%#%oX X+OX#  $#o ",
".*#$O$#+Oo*  *%#o  OX OOO#%oo#@O.",
"X&#$oO +oo *%%#%   +OXXX %   $@oX",
" =$%XOoo  #% # %%O+O## **%#  %$o ",
" &%#X @  OOo %   O#+  %+#O+oX$#o ",
".=#$XX@ +#+O  %oXOo#o  XO# Oo$#O.",
"X*$%X@X O#+ o ooX Oo##  O+#+o%@oX",
"X=%#X   oOOo  XX     ++ XOOo $$OX",
".=%$%#$#$%$#%%$$%$%$#%%%%$%%$%#O.",
" *%%#%#%%#%%%%%#%%%%%$$$%%##%%%o ",
" OooOOoooOooooOOoOOOoOOOooOOoooo "
};
